# Blender 4.5.3 LTS
# www.blender.org
mtllib snake_head.mtl
o Body.001
v 0.839323 -0.839323 -1.000000
v 1.000000 -0.839323 -0.839323
v 0.839323 -0.962646 -0.839323
v 0.919556 -0.839323 -0.978534
v 0.839323 -0.919556 -0.978534
v 0.916161 -0.916161 -0.957683
v 0.978534 -0.898937 -0.839323
v 0.978534 -0.839323 -0.919556
v 0.957683 -0.916161 -0.916161
v 0.839323 -0.978534 -0.919556
v 0.919556 -0.941180 -0.839323
v 0.916161 -0.957683 -0.916161
v 1.000000 0.839323 -0.839323
v 0.839323 0.839323 -1.000000
v 0.839323 1.000000 -0.839323
v 0.978534 0.839323 -0.919556
v 0.978534 0.919556 -0.839323
v 0.957683 0.916161 -0.916161
v 0.839323 0.919556 -0.978534
v 0.919556 0.839323 -0.978534
v 0.916161 0.916161 -0.957683
v 0.919556 0.978534 -0.839323
v 0.839323 0.978534 -0.919556
v 0.916161 0.957683 -0.916161
v 1.000000 0.511940 0.839323
v 0.312996 0.632656 1.000000
v 0.839323 0.351263 0.839323
v 0.978534 0.511940 0.919556
v 0.978534 0.431707 0.839323
v 0.957683 0.435102 0.916161
v 0.839323 0.431707 0.978534
v 0.919556 0.511940 0.978534
v 0.916161 0.435102 0.957683
v 0.919556 0.372729 0.839323
v 0.839323 0.372729 0.919556
v 0.916161 0.393580 0.916161
v 0.839323 1.000000 0.839323
v 0.312996 0.718607 1.000000
v 1.000000 0.839323 0.839323
v 0.839323 0.978534 0.919556
v 0.919556 0.978534 0.839323
v 0.916161 0.957683 0.916161
v 0.919556 0.839323 0.978534
v 0.839323 0.919556 0.978534
v 0.916161 0.916161 0.957683
v 0.978534 0.919556 0.839323
v 0.978534 0.839323 0.919556
v 0.957683 0.916161 0.916161
v 0.356257 -0.683057 -0.036909
v 0.274545 -0.659875 -0.198373
v 0.246347 -0.559746 -0.348253
v 0.294598 -0.598058 0.047737
v 0.167748 -0.512652 -0.051761
v 0.123028 -0.389748 -0.178960
v 0.335811 -0.508067 0.139361
v 0.239132 -0.356783 0.106935
v 0.205455 -0.209766 0.004287
v 0.455756 -0.465800 0.184290
v 0.446882 -0.283575 0.184754
v 0.445344 -0.125232 0.094144
v 0.469587 -0.623080 0.092876
v 0.584169 -0.496016 0.156205
v 0.669301 -0.335910 0.136110
v 0.702171 -0.185664 0.037974
v 0.645829 -0.581015 0.071558
v 0.776098 -0.483133 -0.010503
v 0.825490 -0.355662 -0.131319
v 0.604615 -0.671006 -0.020065
v 0.704714 -0.639002 -0.169199
v 0.743062 -0.535643 -0.314566
v 0.484670 -0.713273 -0.064994
v 0.496964 -0.712210 -0.247018
v 0.503173 -0.620178 -0.404423
v -0.839323 -0.839323 -1.000000
v -1.000000 -0.839323 -0.839323
v -0.839323 -0.962646 -0.839323
v -0.919556 -0.839323 -0.978534
v -0.839323 -0.919556 -0.978534
v -0.916161 -0.916161 -0.957683
v -0.978534 -0.898937 -0.839323
v -0.978534 -0.839323 -0.919556
v -0.957683 -0.916161 -0.916161
v -0.839323 -0.978534 -0.919556
v -0.919556 -0.941180 -0.839323
v -0.916161 -0.957683 -0.916161
v -1.000000 0.839323 -0.839323
v -0.839323 0.839323 -1.000000
v -0.839323 1.000000 -0.839323
v -0.978534 0.839323 -0.919556
v -0.978534 0.919556 -0.839323
v -0.957683 0.916161 -0.916161
v -0.839323 0.919556 -0.978534
v -0.919556 0.839323 -0.978534
v -0.916161 0.916161 -0.957683
v -0.919556 0.978534 -0.839323
v -0.839323 0.978534 -0.919556
v -0.916161 0.957683 -0.916161
v -1.000000 0.511940 0.839323
v -0.312996 0.632656 1.000000
v -0.839323 0.351263 0.839323
v -0.978534 0.511940 0.919556
v -0.978534 0.431707 0.839323
v -0.957683 0.435102 0.916161
v -0.839323 0.431707 0.978534
v -0.919556 0.511940 0.978534
v -0.916161 0.435102 0.957683
v -0.919556 0.372729 0.839323
v -0.839323 0.372729 0.919556
v -0.916161 0.393580 0.916161
v -0.839323 1.000000 0.839323
v -0.312996 0.718607 1.000000
v -1.000000 0.839323 0.839323
v -0.839323 0.978534 0.919556
v -0.919556 0.978534 0.839323
v -0.916161 0.957683 0.916161
v -0.919556 0.839323 0.978534
v -0.839323 0.919556 0.978534
v -0.916161 0.916161 0.957683
v -0.978534 0.919556 0.839323
v -0.978534 0.839323 0.919556
v -0.957683 0.916161 0.916161
v -0.356257 -0.683057 -0.036909
v -0.274545 -0.659875 -0.198373
v -0.246347 -0.559746 -0.348253
v -0.294598 -0.598058 0.047737
v -0.167748 -0.512652 -0.051761
v -0.123028 -0.389748 -0.178960
v -0.335811 -0.508067 0.139361
v -0.239132 -0.356783 0.106935
v -0.205455 -0.209766 0.004287
v -0.455756 -0.465800 0.184290
v -0.446882 -0.283575 0.184754
v -0.445344 -0.125232 0.094144
v -0.469587 -0.623080 0.092876
v -0.584169 -0.496016 0.156205
v -0.669301 -0.335910 0.136110
v -0.702171 -0.185664 0.037974
v -0.645829 -0.581015 0.071558
v -0.776098 -0.483133 -0.010503
v -0.825490 -0.355662 -0.131319
v -0.604615 -0.671006 -0.020065
v -0.704714 -0.639002 -0.169199
v -0.743062 -0.535643 -0.314566
v -0.484670 -0.713273 -0.064994
v -0.496964 -0.712210 -0.247018
v -0.503173 -0.620178 -0.404423
v 0.839323 0.839323 1.000000
v 0.839323 0.511940 1.000000
v -0.839323 0.839323 1.000000
v -0.839323 0.511940 1.000000
v 0.312996 0.718607 2.000000
v 0.312996 0.632656 2.000000
v -0.312996 0.718607 2.000000
v -0.312996 0.632656 2.000000
v 0.000000 1.000000 -0.839323
v 0.000000 0.351263 0.839323
v 0.000000 0.978534 0.919556
v 0.000000 0.919556 0.978534
v 0.000000 0.839323 1.000000
v 0.000000 -0.978534 -0.919556
v 0.000000 -0.919556 -0.978534
v 0.000000 -0.839323 -1.000000
v 0.000000 1.000000 0.839323
v 0.000000 0.372729 0.919556
v 0.000000 0.431707 0.978534
v 0.000000 0.511940 1.000000
v 0.000000 0.978534 -0.919556
v 0.000000 0.919556 -0.978534
v 0.000000 0.839323 -1.000000
v 0.000000 -0.962646 -0.839323
v 0.000000 0.718607 1.000000
v 0.000000 0.632656 1.000000
v 0.000000 0.718607 1.126485
v 0.000000 0.632656 1.126485
vn 0.1296 -0.1296 -0.9831
vn 0.4915 -0.1216 -0.8623
vn 0.4473 -0.4473 -0.7744
vn 0.1216 -0.4915 -0.8623
vn 0.8655 -0.1322 -0.4832
vn 0.7773 -0.5175 -0.3576
vn 0.9830 -0.1793 -0.0383
vn 0.8179 -0.5520 0.1621
vn 0.4298 -0.8309 0.3533
vn 0.4401 -0.8584 -0.2636
vn 0.1171 -0.9056 0.4077
vn 0.1285 -0.9503 -0.2836
vn 0.9831 0.1296 -0.1296
vn 0.8623 0.1216 -0.4915
vn 0.7744 0.4473 -0.4473
vn 0.8623 0.4915 -0.1216
vn 0.4915 0.1216 -0.8623
vn 0.4473 0.4473 -0.7744
vn 0.1296 0.1296 -0.9831
vn 0.1216 0.4915 -0.8623
vn 0.1216 0.8623 -0.4915
vn 0.4473 0.7744 -0.4473
vn 0.1296 0.9831 -0.1296
vn 0.4915 0.8623 -0.1216
vn 0.9809 -0.1057 0.1632
vn 0.8623 -0.1216 0.4915
vn 0.7744 -0.4473 0.4473
vn 0.8433 -0.4497 0.2941
vn 0.4915 -0.1216 0.8623
vn 0.4473 -0.4473 0.7744
vn 0.1296 -0.1296 0.9831
vn 0.1216 -0.4915 0.8623
vn 0.1216 -0.8623 0.4915
vn 0.4473 -0.7744 0.4473
vn 0.1196 -0.8842 0.4516
vn 0.4532 -0.7859 0.4207
vn 0.1296 0.9831 0.1296
vn 0.1216 0.8623 0.4915
vn 0.4473 0.7744 0.4473
vn 0.4915 0.8623 0.1216
vn 0.1216 0.4915 0.8623
vn 0.4473 0.4473 0.7744
vn 0.1296 0.1296 0.9831
vn 0.4915 0.1216 0.8623
vn 0.8623 0.1216 0.4915
vn 0.7744 0.4473 0.4473
vn 0.9831 0.1296 0.1296
vn 0.8623 0.4915 0.1216
vn -0.0000 -0.4998 0.8661
vn -0.1216 -0.4915 0.8623
vn -0.1216 -0.8623 0.4915
vn -0.0000 -0.8661 0.4998
vn -0.0000 -0.9090 0.4167
vn -0.0000 -0.9568 -0.2907
vn -0.0000 0.4998 -0.8661
vn -0.1216 0.4915 -0.8623
vn -0.1216 0.8623 -0.4915
vn -0.0000 0.8661 -0.4998
vn -0.0000 0.4998 0.8661
vn -0.0000 0.1303 0.9915
vn -0.0000 -0.1303 0.9915
vn -0.1296 -0.1296 0.9831
vn -0.0000 0.1303 -0.9915
vn -0.1296 0.1296 -0.9831
vn -0.0000 -0.1303 -0.9915
vn 0.0659 -0.9551 -0.2888
vn 0.0336 -0.9783 0.2043
vn -0.3636 -0.8848 0.2912
vn -0.5755 -0.8042 -0.1485
vn 0.0758 -0.8621 -0.5011
vn -0.6280 -0.6965 -0.3471
vn -0.0133 -0.7104 0.7037
vn -0.8836 -0.3796 0.2743
vn -0.9660 -0.2306 0.1168
vn -0.5544 -0.6219 0.5531
vn -0.6777 0.0700 0.7320
vn -0.7401 0.2627 0.6191
vn -0.4269 -0.3435 0.8365
vn -0.0785 0.2811 0.9565
vn -0.0827 0.4944 0.8653
vn -0.0558 -0.2127 0.9755
vn 0.5630 0.1302 0.8162
vn 0.6212 0.3287 0.7114
vn 0.3414 -0.3062 0.8886
vn -0.0000 0.9915 -0.1303
vn -0.0000 0.9915 0.1303
vn 0.8710 -0.2944 0.3933
vn 0.9592 -0.1372 0.2474
vn 0.5322 -0.5692 0.6268
vn -0.0000 -0.4998 -0.8661
vn -0.0000 0.8661 0.4998
vn -0.0000 -0.8948 0.4464
vn -0.1196 -0.8842 0.4516
vn -0.1171 -0.9056 0.4077
vn 0.4047 -0.8476 0.3433
vn 0.6651 -0.7440 -0.0644
vn 0.7333 -0.6304 -0.2548
vn -0.0000 -1.0000 -0.0000
vn 0.7071 -0.7071 -0.0000
vn 0.1442 -0.5389 0.8300
vn -0.0000 -0.9825 0.1861
vn -0.1296 -0.1296 -0.9831
vn -0.1216 -0.4915 -0.8623
vn -0.4473 -0.4473 -0.7744
vn -0.4915 -0.1216 -0.8623
vn -0.7773 -0.5175 -0.3576
vn -0.8655 -0.1322 -0.4832
vn -0.9830 -0.1793 -0.0383
vn -0.8179 -0.5520 0.1621
vn -0.4401 -0.8584 -0.2636
vn -0.4298 -0.8309 0.3533
vn -0.1285 -0.9503 -0.2836
vn -0.9831 0.1296 -0.1296
vn -0.8623 0.4915 -0.1216
vn -0.7744 0.4473 -0.4473
vn -0.8623 0.1216 -0.4915
vn -0.4473 0.4473 -0.7744
vn -0.4915 0.1216 -0.8623
vn -0.4473 0.7744 -0.4473
vn -0.1296 0.9831 -0.1296
vn -0.4915 0.8623 -0.1216
vn -0.9809 -0.1057 0.1632
vn -0.8433 -0.4497 0.2941
vn -0.7744 -0.4473 0.4473
vn -0.8623 -0.1216 0.4915
vn -0.4473 -0.4473 0.7744
vn -0.4915 -0.1216 0.8623
vn -0.4473 -0.7744 0.4473
vn -0.4532 -0.7859 0.4207
vn -0.1296 0.9831 0.1296
vn -0.4915 0.8623 0.1216
vn -0.4473 0.7744 0.4473
vn -0.1216 0.8623 0.4915
vn -0.4473 0.4473 0.7744
vn -0.1216 0.4915 0.8623
vn -0.1296 0.1296 0.9831
vn -0.4915 0.1216 0.8623
vn -0.7744 0.4473 0.4473
vn -0.8623 0.1216 0.4915
vn -0.9831 0.1296 0.1296
vn -0.8623 0.4915 0.1216
vn -0.0659 -0.9551 -0.2888
vn 0.5755 -0.8042 -0.1485
vn 0.3636 -0.8848 0.2912
vn -0.0336 -0.9783 0.2043
vn -0.0758 -0.8621 -0.5011
vn 0.6280 -0.6965 -0.3471
vn 0.0133 -0.7104 0.7037
vn 0.9660 -0.2306 0.1168
vn 0.8836 -0.3796 0.2743
vn 0.5544 -0.6219 0.5531
vn 0.7401 0.2627 0.6191
vn 0.6777 0.0700 0.7320
vn 0.4269 -0.3435 0.8365
vn 0.0827 0.4944 0.8653
vn 0.0785 0.2811 0.9565
vn 0.0558 -0.2127 0.9755
vn -0.6212 0.3287 0.7114
vn -0.5630 0.1302 0.8162
vn -0.3414 -0.3062 0.8886
vn -0.9592 -0.1372 0.2474
vn -0.8710 -0.2944 0.3933
vn -0.5322 -0.5692 0.6268
vn -0.4047 -0.8476 0.3433
vn -0.6651 -0.7440 -0.0644
vn -0.7333 -0.6304 -0.2548
vn -0.0000 -0.0000 1.0000
vn -0.0000 0.9825 0.1861
vn -0.1442 0.5389 0.8300
vn -0.1442 -0.5389 0.8300
vn -0.7071 0.7071 -0.0000
vn -0.7071 -0.7071 -0.0000
vn -0.0000 1.0000 -0.0000
vn 0.7071 0.7071 -0.0000
vn 0.1442 0.5389 0.8300
vt 0.615853 0.863857
vt 0.616587 0.864524
vt 0.615746 0.865316
vt 0.614932 0.864837
vt 0.617286 0.865240
vt 0.616206 0.865791
vt 0.617944 0.866000
vt 0.616906 0.866362
vt 0.615607 0.866844
vt 0.615352 0.866033
vt 0.613824 0.867329
vt 0.614231 0.866010
vt 0.638576 0.848913
vt 0.637911 0.847829
vt 0.638596 0.846749
vt 0.639322 0.847506
vt 0.637269 0.846736
vt 0.638183 0.846035
vt 0.636664 0.845636
vt 0.637800 0.844934
vt 0.639048 0.844392
vt 0.638947 0.845789
vt 0.640364 0.844020
vt 0.639920 0.845871
vt 0.645648 0.877796
vt 0.645633 0.879552
vt 0.642733 0.880886
vt 0.642670 0.879461
vt 0.645160 0.881783
vt 0.642285 0.882221
vt 0.644128 0.884557
vt 0.640428 0.884108
vt 0.637491 0.883569
vt 0.640593 0.881974
vt 0.635003 0.882983
vt 0.639073 0.881259
vt 0.656625 0.860736
vt 0.657503 0.863294
vt 0.656469 0.865793
vt 0.655716 0.864040
vt 0.658369 0.866306
vt 0.656910 0.867522
vt 0.659219 0.870066
vt 0.656883 0.870331
vt 0.654867 0.870096
vt 0.655730 0.867584
vt 0.653028 0.869488
vt 0.654477 0.866916
vt 0.574906 0.893837
vt 0.577537 0.829777
vt 0.578325 0.833230
vt 0.575968 0.892744
vt 0.600484 0.862209
vt 0.603296 0.860567
vt 0.631587 0.833601
vt 0.618015 0.829243
vt 0.618244 0.828321
vt 0.632904 0.831697
vt 0.661348 0.807346
vt 0.662445 0.806306
vt 0.573869 0.894926
vt 0.576742 0.825569
vt 0.630333 0.835463
vt 0.617546 0.830102
vt 0.608229 0.857134
vt 0.109715 0.873591
vt 0.112956 0.874893
vt 0.113079 0.877457
vt 0.109935 0.878760
vt 0.106339 0.871997
vt 0.106339 0.880269
vt 0.116116 0.876056
vt 0.113599 0.882541
vt 0.112265 0.885858
vt 0.114929 0.879180
vt 0.118923 0.882305
vt 0.120232 0.885791
vt 0.117469 0.879161
vt 0.122489 0.878491
vt 0.125878 0.880065
vt 0.119275 0.877291
vt 0.122262 0.873366
vt 0.125861 0.871854
vt 0.119125 0.874679
vt 0.634257 0.829778
vt 0.659092 0.809587
vt 0.118642 0.869621
vt 0.119991 0.866309
vt 0.117264 0.872877
vt 0.605895 0.858848
vt 0.660229 0.808437
vt 0.577047 0.891652
vt 0.579103 0.836229
vt 0.601797 0.848802
vt 0.114689 0.872998
vt 0.113346 0.869795
vt 0.112066 0.866298
vt 0.373015 0.869464
vt 0.371576 0.854963
vt 0.379244 0.859008
vt 0.376111 0.869283
vt 0.604603 0.847862
vt 0.603684 0.848491
vt 0.603165 0.847653
vt 0.603855 0.847089
vt 0.602648 0.847185
vt 0.603045 0.846379
vt 0.602182 0.845742
vt 0.601958 0.846512
vt 0.602555 0.847869
vt 0.601720 0.847473
vt 0.602722 0.848828
vt 0.614070 0.827726
vt 0.615260 0.827230
vt 0.616083 0.828121
vt 0.615210 0.828574
vt 0.616832 0.828646
vt 0.616365 0.829378
vt 0.616920 0.827991
vt 0.618188 0.827370
vt 0.616622 0.827022
vt 0.586211 0.822369
vt 0.584227 0.825803
vt 0.582175 0.826118
vt 0.584004 0.822735
vt 0.580338 0.827143
vt 0.581009 0.823681
vt 0.580674 0.829001
vt 0.581722 0.830360
vt 0.613067 0.808075
vt 0.607779 0.809142
vt 0.606007 0.808207
vt 0.609963 0.807089
vt 0.604038 0.807888
vt 0.606420 0.806074
vt 0.602295 0.805023
vt 0.600447 0.808015
vt 0.603123 0.809152
vt 0.599545 0.810366
vt 0.599152 0.812414
vt 0.603126 0.810605
vt 0.109940 0.853775
vt 0.113515 0.850065
vt 0.114888 0.853262
vt 0.113032 0.855065
vt 0.106339 0.852237
vt 0.112301 0.846550
vt 0.116118 0.856417
vt 0.120257 0.846748
vt 0.118847 0.850035
vt 0.117428 0.853345
vt 0.125878 0.852376
vt 0.122494 0.853920
vt 0.119235 0.855138
vt 0.125878 0.860596
vt 0.122276 0.859054
vt 0.119191 0.857741
vt 0.119932 0.866267
vt 0.118715 0.862751
vt 0.117324 0.859561
vt 0.112019 0.866077
vt 0.113419 0.862784
vt 0.114743 0.859522
vt 0.113035 0.857631
vt 0.109725 0.858940
vt 0.106353 0.860502
vt 0.664378 0.871633
vt 0.636120 0.892959
vt 0.572222 0.823258
vt 0.603328 0.800935
vt 0.664378 0.804470
vt 0.571972 0.896799
vt 0.383476 0.870032
vt 0.380343 0.880307
vt 0.379342 0.879896
vt 0.388010 0.884352
vt 0.371576 0.885474
vt 0.386571 0.869851
vt 0.388010 0.853842
vt 0.380245 0.859420
s 1
usemtl Material
f 1/1/1 4/2/2 6/3/3 5/4/4
f 4/2/2 8/5/5 9/6/6 6/3/3
f 2/7/7 7/8/8 9/6/6 8/5/5
f 7/8/8 11/9/9 12/10/10 9/6/6
f 3/11/11 10/12/12 12/10/10 11/9/9
f 10/12/12 5/4/4 6/3/3 12/10/10
f 6/3/3 9/6/6 12/10/10
f 13/13/13 16/14/14 18/15/15 17/16/16
f 16/14/14 20/17/17 21/18/18 18/15/15
f 14/19/19 19/20/20 21/18/18 20/17/17
f 19/20/20 23/21/21 24/22/22 21/18/18
f 15/23/23 22/24/24 24/22/22 23/21/21
f 22/24/24 17/16/16 18/15/15 24/22/22
f 18/15/15 21/18/18 24/22/22
f 25/25/25 28/26/26 30/27/27 29/28/28
f 28/26/26 32/29/29 33/30/30 30/27/27
f 148/31/31 31/32/32 33/30/30 32/29/29
f 31/32/32 35/33/33 36/34/34 33/30/30
f 27/35/35 34/36/36 36/34/34 35/33/33
f 34/36/36 29/28/28 30/27/27 36/34/34
f 30/27/27 33/30/30 36/34/34
f 37/37/37 40/38/38 42/39/39 41/40/40
f 40/38/38 44/41/41 45/42/42 42/39/39
f 147/43/43 43/44/44 45/42/42 44/41/41
f 43/44/44 47/45/45 48/46/46 45/42/42
f 39/47/47 46/48/48 48/46/46 47/45/45
f 46/48/48 41/40/40 42/39/39 48/46/46
f 42/39/39 45/42/42 48/46/46
f 15/23/23 37/37/37 41/40/40 22/24/24
f 22/24/24 41/40/40 46/48/48 17/16/16
f 17/16/16 46/48/48 39/47/47 13/13/13
f 165/49/49 104/50/50 108/51/51 164/52/52
f 170/53/53 160/54/54 10/12/12 3/11/11
f 168/55/55 92/56/56 96/57/57 167/58/58
f 147/43/43 148/31/31 32/29/29 43/44/44
f 43/44/44 32/29/29 28/26/26 47/45/45
f 47/45/45 28/26/26 25/25/25 39/47/47
f 1/1/1 14/19/19 20/17/17 4/2/2
f 4/2/2 20/17/17 16/14/14 8/5/5
f 8/5/5 16/14/14 13/13/13 2/7/7
f 158/59/59 159/60/60 147/43/43 44/41/41
f 166/61/61 150/62/62 104/50/50 165/49/49
f 169/63/63 87/64/64 92/56/56 168/55/55
f 27/35/35 3/11/11 11/9/9 34/36/36
f 34/36/36 11/9/9 7/8/8 29/28/28
f 29/28/28 7/8/8 2/7/7 25/25/25
f 169/63/63 14/19/19 1/1/1 162/65/65
f 39/47/47 25/25/25 2/7/7 13/13/13
f 72/66/66 71/67/67 49/68/68 50/69/69
f 73/70/70 72/66/66 50/69/69 51/71/71
f 71/67/67 61/72/72 49/68/68
f 51/71/71 50/69/69 53/73/73 54/74/74
f 49/68/68 61/72/72 52/75/75
f 50/69/69 49/68/68 52/75/75 53/73/73
f 54/74/74 53/73/73 56/76/76 57/77/77
f 52/75/75 61/72/72 55/78/78
f 53/73/73 52/75/75 55/78/78 56/76/76
f 57/77/77 56/76/76 59/79/79 60/80/80
f 55/78/78 61/72/72 58/81/81
f 56/76/76 55/78/78 58/81/81 59/79/79
f 60/80/80 59/79/79 63/82/82 64/83/83
f 58/81/81 61/72/72 62/84/84
f 155/85/85 163/86/86 37/37/37 15/23/23
f 59/79/79 58/81/81 62/84/84 63/82/82
f 64/83/83 63/82/82 66/87/87 67/88/88
f 62/84/84 61/72/72 65/89/89
f 160/54/54 161/90/90 5/4/4 10/12/12
f 163/86/86 157/91/91 40/38/38 37/37/37
f 63/82/82 62/84/84 65/89/89 66/87/87
f 156/92/92 100/93/93 76/94/94 170/53/53
f 65/89/89 61/72/72 68/95/95
f 164/52/52 108/51/51 100/93/93 156/92/92
f 161/90/90 162/65/65 1/1/1 5/4/4
f 66/87/87 65/89/89 68/95/95 69/96/96
f 67/88/88 66/87/87 69/96/96 70/97/97
f 157/91/91 158/59/59 44/41/41 40/38/38
f 172/98/98 26/99/99 152/100/100 174/101/101
f 69/96/96 68/95/95 71/67/67 72/66/66
f 70/97/97 69/96/96 72/66/66 73/70/70
f 68/95/95 61/72/72 71/67/67
f 74/102/102 78/103/103 79/104/104 77/105/105
f 77/105/105 79/104/104 82/106/106 81/107/107
f 75/108/108 81/107/107 82/106/106 80/109/109
f 80/109/109 82/106/106 85/110/110 84/111/111
f 76/94/94 84/111/111 85/110/110 83/112/112
f 83/112/112 85/110/110 79/104/104 78/103/103
f 79/104/104 85/110/110 82/106/106
f 86/113/113 90/114/114 91/115/115 89/116/116
f 89/116/116 91/115/115 94/117/117 93/118/118
f 87/64/64 93/118/118 94/117/117 92/56/56
f 92/56/56 94/117/117 97/119/119 96/57/57
f 88/120/120 96/57/57 97/119/119 95/121/121
f 95/121/121 97/119/119 91/115/115 90/114/114
f 91/115/115 97/119/119 94/117/117
f 98/122/122 102/123/123 103/124/124 101/125/125
f 101/125/125 103/124/124 106/126/126 105/127/127
f 150/62/62 105/127/127 106/126/126 104/50/50
f 104/50/50 106/126/126 109/128/128 108/51/51
f 100/93/93 108/51/51 109/128/128 107/129/129
f 107/129/129 109/128/128 103/124/124 102/123/123
f 103/124/124 109/128/128 106/126/126
f 110/130/130 114/131/131 115/132/132 113/133/133
f 113/133/133 115/132/132 118/134/134 117/135/135
f 149/136/136 117/135/135 118/134/134 116/137/137
f 116/137/137 118/134/134 121/138/138 120/139/139
f 112/140/140 120/139/139 121/138/138 119/141/141
f 119/141/141 121/138/138 115/132/132 114/131/131
f 115/132/132 121/138/138 118/134/134
f 88/120/120 95/121/121 114/131/131 110/130/130
f 95/121/121 90/114/114 119/141/141 114/131/131
f 90/114/114 86/113/113 112/140/140 119/141/141
f 149/136/136 116/137/137 105/127/127 150/62/62
f 116/137/137 120/139/139 101/125/125 105/127/127
f 120/139/139 112/140/140 98/122/122 101/125/125
f 74/102/102 77/105/105 93/118/118 87/64/64
f 77/105/105 81/107/107 89/116/116 93/118/118
f 81/107/107 75/108/108 86/113/113 89/116/116
f 100/93/93 107/129/129 84/111/111 76/94/94
f 107/129/129 102/123/123 80/109/109 84/111/111
f 102/123/123 98/122/122 75/108/108 80/109/109
f 112/140/140 86/113/113 75/108/108 98/122/122
f 145/142/142 123/143/143 122/144/144 144/145/145
f 146/146/146 124/147/147 123/143/143 145/142/142
f 144/145/145 122/144/144 134/148/148
f 124/147/147 127/149/149 126/150/150 123/143/143
f 122/144/144 125/151/151 134/148/148
f 123/143/143 126/150/150 125/151/151 122/144/144
f 127/149/149 130/152/152 129/153/153 126/150/150
f 125/151/151 128/154/154 134/148/148
f 126/150/150 129/153/153 128/154/154 125/151/151
f 130/152/152 133/155/155 132/156/156 129/153/153
f 128/154/154 131/157/157 134/148/148
f 129/153/153 132/156/156 131/157/157 128/154/154
f 133/155/155 137/158/158 136/159/159 132/156/156
f 131/157/157 135/160/160 134/148/148
f 132/156/156 136/159/159 135/160/160 131/157/157
f 137/158/158 140/161/161 139/162/162 136/159/159
f 135/160/160 138/163/163 134/148/148
f 136/159/159 139/162/162 138/163/163 135/160/160
f 138/163/163 141/164/164 134/148/148
f 139/162/162 142/165/165 141/164/164 138/163/163
f 140/161/161 143/166/166 142/165/165 139/162/162
f 142/165/165 145/142/142 144/145/145 141/164/164
f 143/166/166 146/146/146 145/142/142 142/165/165
f 141/164/164 144/145/145 134/148/148
f 167/58/58 96/57/57 88/120/120 155/85/85
f 38/167/167 26/168/167 148/31/31 147/43/43
f 99/169/167 111/170/167 149/136/136 150/62/62
f 171/171/167 38/167/167 147/43/43 159/60/60
f 172/172/167 99/169/167 150/62/62 166/61/61
f 173/173/168 153/174/169 154/175/170 174/101/101
f 111/176/171 99/177/172 154/175/170 153/174/169
f 171/178/173 111/176/171 153/174/169 173/173/168
f 26/99/99 38/179/174 151/180/175 152/100/100
f 38/179/174 171/178/173 173/173/168 151/180/175
f 151/180/175 173/173/168 174/101/101 152/100/100
f 26/168/167 172/172/167 166/61/61 148/31/31
f 111/170/167 171/171/167 159/60/60 149/136/136
f 23/21/21 167/58/58 155/85/85 15/23/23
f 99/177/172 172/98/98 174/101/101 154/175/170
f 113/133/133 117/135/135 158/59/59 157/91/91
f 78/103/103 74/102/102 162/65/65 161/90/90
f 35/33/33 164/52/52 156/92/92 27/35/35
f 27/35/35 156/92/92 170/53/53 3/11/11
f 110/130/130 113/133/133 157/91/91 163/86/86
f 83/112/112 78/103/103 161/90/90 160/54/54
f 88/120/120 110/130/130 163/86/86 155/85/85
f 87/64/64 169/63/63 162/65/65 74/102/102
f 14/19/19 169/63/63 168/55/55 19/20/20
f 148/31/31 166/61/61 165/49/49 31/32/32
f 117/135/135 149/136/136 159/60/60 158/59/59
f 19/20/20 168/55/55 167/58/58 23/21/21
f 76/94/94 83/112/112 160/54/54 170/53/53
f 31/32/32 165/49/49 164/52/52 35/33/33
